<?xml version="1.0" standalone="no"?>
<!DOCTYPE svg PUBLIC "-//W3C//DTD SVG 20010904//EN"
 "http://www.w3.org/TR/2001/REC-SVG-20010904/DTD/svg10.dtd">
<svg version="1.0" xmlns="http://www.w3.org/2000/svg"
 width="262.000000pt" height="94.000000pt" viewBox="0 0 262.000000 94.000000"
 preserveAspectRatio="xMidYMid meet">

<g transform="translate(0.000000,94.000000) scale(0.100000,-0.100000)"
fill="#000" stroke="none">
<path d="M405 843 c3 -10 49 -135 100 -279 52 -143 117 -319 144 -390 l49
-129 76 -3 c42 -2 76 0 76 4 0 3 -66 188 -147 410 l-146 404 -80 0 c-71 0 -78
-2 -72 -17z"/>
<path d="M1382 849 c-71 -14 -168 -68 -218 -121 -84 -90 -126 -226 -105 -341
26 -137 100 -236 221 -297 76 -38 142 -50 280 -50 l120 0 0 64 0 64 -137 4
c-150 3 -191 16 -257 76 -105 98 -102 313 7 409 62 54 131 73 267 73 l120 0 0
65 0 65 -127 -1 c-71 -1 -147 -5 -171 -10z"/>
<path d="M1962 793 c2 -38 6 -67 11 -65 4 1 140 2 302 2 l295 0 0 65 0 65
-305 0 -306 0 3 -67z"/>
<path d="M210 387 c-63 -155 -120 -297 -127 -314 l-13 -33 74 0 73 0 26 58
c14 31 55 129 91 217 l66 160 -36 95 c-20 52 -37 96 -38 97 -1 1 -53 -125
-116 -280z"/>
<path d="M1960 455 l0 -65 275 0 275 0 0 65 0 65 -275 0 -275 0 0 -65z"/>
<path d="M1960 105 l0 -65 305 0 305 0 0 65 0 65 -305 0 -305 0 0 -65z"/>
</g>
</svg>
