<?xml version="1.0" standalone="no"?>
<!DOCTYPE svg PUBLIC "-//W3C//DTD SVG 20010904//EN"
 "http://www.w3.org/TR/2001/REC-SVG-20010904/DTD/svg10.dtd">
<svg version="1.0" xmlns="http://www.w3.org/2000/svg"
 width="2100.000000pt" height="1500.000000pt" viewBox="0 0 2100.000000 1500.000000"
 preserveAspectRatio="xMidYMid meet">
<metadata>
Created by potrace 1.16, written by Peter Selinger 2001-2019
</metadata>
<g transform="translate(0.000000,1500.000000) scale(0.100000,-0.100000)"
fill="#000000" stroke="none">
<path d="M13630 11123 c-68 -4 -180 -25 -180 -35 0 -4 -9 -8 -19 -8 -11 0 -26
-7 -35 -15 -8 -8 -19 -15 -24 -15 -5 0 -18 -8 -30 -17 -40 -33 -67 -55 -78
-61 -6 -4 -24 -27 -40 -51 -78 -118 -99 -182 -97 -301 l2 -95 -61 -55 c-33
-30 -87 -80 -119 -110 -106 -99 -191 -178 -404 -375 -42 -38 -102 -95 -134
-125 -32 -30 -93 -86 -136 -125 -42 -38 -85 -78 -93 -87 -22 -24 -26 -23 -68
15 -45 40 -95 83 -153 134 -24 21 -57 49 -72 63 -15 14 -49 43 -75 65 -26 22
-60 51 -75 65 -15 14 -49 43 -75 65 -26 22 -62 54 -80 70 -18 17 -54 48 -80
70 -27 22 -59 50 -72 63 l-24 23 -21 -24 c-22 -25 -87 -101 -142 -165 -16 -20
-40 -46 -51 -58 -12 -13 -36 -43 -54 -68 -18 -25 -39 -47 -46 -50 -20 -8 -17
-29 6 -44 11 -7 20 -17 20 -22 0 -8 20 -32 85 -101 8 -9 15 -20 15 -25 0 -5 9
-15 20 -22 11 -7 20 -17 20 -22 0 -6 14 -24 30 -40 17 -16 30 -34 30 -39 0 -6
9 -15 20 -21 11 -6 20 -16 20 -21 0 -11 16 -31 73 -91 15 -16 27 -33 27 -37 0
-3 8 -14 18 -23 9 -9 27 -29 39 -45 31 -40 88 -111 131 -162 20 -23 39 -47 41
-53 2 -5 19 -26 38 -46 58 -62 63 -68 63 -78 0 -5 9 -15 20 -22 11 -7 20 -19
20 -28 0 -8 4 -13 9 -9 5 3 12 -3 16 -14 3 -11 12 -22 20 -25 8 -3 15 -12 15
-20 0 -9 9 -20 20 -26 11 -6 20 -16 20 -23 0 -7 13 -24 30 -37 16 -14 29 -30
30 -35 0 -17 59 -64 122 -98 32 -17 58 -35 58 -40 0 -4 5 -5 10 -2 6 3 10 2
10 -2 0 -5 25 -22 55 -38 30 -17 55 -34 55 -38 0 -5 4 -6 9 -3 5 4 11 2 13 -2
1 -5 30 -23 63 -42 33 -18 62 -37 65 -41 3 -3 28 -18 56 -32 29 -15 58 -33 66
-41 8 -7 37 -25 65 -40 28 -14 57 -32 65 -40 8 -7 42 -28 75 -45 34 -17 63
-34 65 -39 1 -5 31 -24 66 -41 34 -17 62 -36 62 -42 0 -5 4 -8 9 -5 5 3 14 -1
21 -9 7 -8 16 -15 21 -15 11 0 81 -42 77 -46 -2 -2 -46 4 -98 12 -73 12 -140
15 -290 11 -258 -7 -414 -38 -559 -111 l-53 -27 17 29 c10 16 37 51 61 78 24
27 44 53 44 58 0 5 15 25 33 46 65 74 87 102 87 109 0 4 -27 20 -60 36 -33 16
-60 32 -60 35 0 4 -36 24 -79 44 -44 21 -81 41 -83 44 -2 4 -39 24 -82 45 -72
34 -146 92 -146 114 0 8 -34 52 -65 84 -8 9 -15 20 -15 26 0 5 -9 18 -20 28
-11 10 -20 22 -20 27 0 4 -7 16 -16 26 -45 50 -74 89 -80 105 -3 9 -10 17 -15
17 -5 0 -14 11 -19 25 -14 38 -37 31 -93 -31 -29 -31 -79 -85 -112 -120 -33
-35 -94 -100 -135 -145 -41 -45 -102 -110 -135 -144 -33 -35 -96 -103 -140
-151 -44 -48 -109 -118 -145 -157 -36 -39 -77 -83 -91 -98 l-25 -28 -128 122
c-70 67 -159 151 -198 187 -38 36 -100 93 -137 127 -36 35 -104 98 -149 140
-46 43 -115 108 -153 146 -60 58 -72 66 -89 57 -11 -6 -20 -16 -20 -23 0 -7
-8 -20 -17 -29 -37 -35 -53 -55 -53 -64 0 -5 -16 -25 -35 -44 -19 -19 -35 -38
-35 -43 0 -5 -18 -27 -40 -49 -22 -22 -40 -45 -40 -50 0 -5 -13 -23 -30 -39
-16 -17 -33 -36 -37 -44 -5 -7 -89 -52 -188 -100 -99 -47 -182 -89 -185 -94
-3 -4 -24 -16 -47 -26 -39 -17 -55 -38 -35 -47 4 -1 24 -23 44 -48 20 -25 57
-67 82 -93 25 -27 46 -52 46 -55 0 -4 -14 -13 -31 -21 -22 -9 -37 -28 -51 -60
-12 -25 -22 -47 -23 -49 -2 -2 -62 31 -134 73 -72 42 -152 83 -177 91 -31 9
-95 14 -188 14 -299 -1 -429 -56 -485 -205 -25 -66 -26 -79 -61 -490 -53 -617
-53 -707 4 -759 17 -16 108 -62 210 -107 l180 -77 -45 -6 c-24 -3 -89 -8 -144
-11 -102 -7 -180 -30 -218 -65 -17 -16 -11 -17 110 -23 70 -4 224 -7 341 -7
204 0 215 -1 275 -25 34 -14 81 -29 105 -32 23 -3 45 -10 48 -15 3 -4 -14 -28
-38 -52 -24 -24 -77 -81 -118 -126 -41 -45 -102 -111 -135 -145 -33 -35 -94
-101 -135 -146 -41 -45 -102 -110 -135 -144 -132 -138 -123 -119 -197 -408
-38 -144 -66 -268 -63 -275 2 -6 -1 -12 -6 -12 -6 0 -9 -9 -6 -20 3 -11 1 -20
-5 -20 -6 0 -8 -7 -5 -15 4 -8 2 -17 -4 -21 -6 -3 -8 -12 -5 -20 3 -7 1 -16
-5 -20 -6 -3 -8 -12 -5 -20 3 -7 1 -16 -3 -18 -5 -3 -9 -16 -9 -28 0 -13 -48
-210 -106 -438 -58 -228 -106 -418 -106 -422 0 -13 30 -9 68 8 159 70 169 74
186 74 9 0 16 4 16 10 0 5 16 12 35 16 19 3 35 10 35 15 0 5 5 9 11 9 6 0 27
7 47 16 159 70 169 74 186 74 9 0 16 4 16 9 0 5 15 13 33 16 17 4 34 10 37 14
3 4 25 15 50 25 25 10 59 24 75 32 17 7 46 20 67 28 20 9 43 16 52 16 9 0 16
5 16 10 0 6 5 10 11 10 6 0 27 7 47 16 41 18 84 36 122 52 14 6 46 20 72 31
26 12 54 21 62 21 9 0 16 5 16 10 0 6 5 10 11 10 6 0 27 7 47 16 157 69 169
74 184 74 7 0 31 26 53 57 22 31 55 73 73 92 19 20 41 50 49 66 15 27 28 44
88 110 11 12 27 34 35 48 15 25 78 103 113 139 9 10 16 21 15 26 -2 4 6 16 17
28 29 30 71 83 103 129 26 38 52 70 97 119 11 12 26 34 34 48 7 14 26 40 41
57 15 16 38 45 51 63 13 18 52 68 86 111 35 44 63 82 63 86 0 3 17 24 38 47
50 55 82 94 80 97 -5 5 85 117 93 117 5 0 9 6 9 13 0 7 21 38 46 68 25 30 54
64 65 77 10 12 17 22 14 22 -5 0 17 27 73 91 44 50 84 56 123 17 16 -16 29
-32 29 -34 0 -6 14 -22 80 -92 30 -32 93 -103 140 -157 47 -55 96 -110 110
-123 13 -13 32 -34 40 -47 15 -23 109 -128 213 -237 31 -33 57 -64 57 -67 0
-4 28 -36 63 -72 34 -35 100 -109 147 -164 47 -54 95 -109 108 -121 12 -12 36
-39 53 -60 17 -22 55 -65 86 -96 30 -32 52 -58 49 -58 -3 0 27 -33 68 -74 47
-47 86 -77 105 -81 17 -4 33 -11 36 -16 4 -5 13 -9 22 -9 8 0 29 -6 46 -14 18
-8 50 -20 72 -26 22 -7 45 -16 50 -20 6 -4 25 -11 43 -15 17 -3 32 -10 32 -14
0 -4 25 -13 55 -20 30 -7 57 -16 60 -21 3 -4 21 -11 40 -14 19 -4 35 -10 35
-15 0 -4 25 -13 55 -20 30 -7 57 -16 60 -21 3 -4 21 -11 40 -14 19 -4 35 -10
35 -15 0 -4 25 -13 55 -20 30 -7 57 -16 60 -21 3 -4 21 -11 40 -14 19 -4 35
-10 35 -15 0 -4 25 -13 55 -20 30 -7 57 -16 60 -21 3 -4 21 -11 40 -14 19 -4
35 -10 35 -15 0 -4 25 -13 55 -20 30 -7 57 -16 60 -21 3 -4 21 -11 40 -14 19
-4 35 -11 35 -15 0 -5 17 -12 38 -16 20 -4 51 -13 67 -20 17 -7 41 -17 55 -21
14 -3 27 -10 30 -14 3 -4 20 -11 38 -15 23 -5 32 -3 32 7 1 23 -94 353 -101
356 -5 2 -6 9 -3 17 3 7 0 16 -5 20 -6 3 -8 11 -5 17 4 6 2 13 -3 17 -5 3 -31
85 -58 181 -27 96 -52 176 -56 178 -4 2 -5 12 -2 22 3 12 0 20 -6 20 -7 0 -9
5 -5 11 3 6 2 14 -3 18 -5 3 -33 94 -63 201 -30 107 -57 196 -61 198 -4 2 -6
9 -3 17 3 7 1 16 -5 19 -6 4 -8 13 -4 21 3 8 1 15 -4 15 -5 0 -17 33 -28 73
-15 59 -24 77 -54 102 -20 17 -60 53 -88 80 -29 28 -88 83 -130 123 -43 40
-125 118 -183 173 -100 97 -103 101 -70 95 167 -29 362 -29 550 0 126 20 190
39 284 85 43 22 95 40 115 40 89 3 107 18 39 33 l-28 6 43 53 c129 159 142
388 30 550 -15 21 -109 108 -209 193 -117 99 -181 160 -178 168 9 22 59 39 96
31 18 -4 67 -26 109 -50 133 -76 182 -81 239 -24 62 63 99 169 79 227 -21 62
-443 442 -573 517 -17 9 -16 12 6 36 12 14 39 46 60 70 111 134 133 159 140
159 4 0 8 5 8 10 0 6 12 22 26 35 21 20 24 27 14 44 -6 12 -14 21 -18 21 -4 0
-26 17 -48 38 -23 20 -64 57 -93 82 -29 25 -62 54 -75 65 -12 11 -46 40 -75
65 -29 25 -73 64 -97 86 -24 23 -44 40 -44 38 0 -1 -15 11 -32 27 -18 17 -53
47 -78 67 -24 21 -62 54 -82 74 -21 20 -38 35 -38 33 0 -2 -14 9 -32 25 -27
25 -30 31 -18 46 8 9 19 24 25 34 5 10 25 39 43 65 17 25 32 49 32 54 0 4 10
18 23 31 24 26 30 36 65 99 12 22 26 41 31 41 5 0 11 8 15 18 8 25 42 81 60
100 21 22 66 91 66 101 0 4 9 16 20 26 11 10 20 22 20 26 0 10 43 77 63 100 8
10 27 39 43 65 15 27 32 54 38 59 17 15 66 93 66 104 0 6 6 14 14 18 7 4 22
23 32 42 61 108 61 109 144 117 40 4 85 13 99 20 14 8 34 14 44 14 9 0 17 4
17 9 0 5 9 13 21 16 38 12 156 124 183 173 62 113 77 180 66 302 -8 91 -19
152 -29 160 -3 3 -17 25 -30 49 -28 53 -32 58 -93 121 -41 43 -169 118 -190
112 -5 -1 -8 3 -8 9 0 6 -9 9 -20 6 -11 -3 -20 -1 -20 5 0 5 -10 6 -21 3 -12
-4 -24 -3 -28 1 -3 5 -26 8 -51 7z m-1368 -4100 c59 -41 68 -50 68 -77 0 -40
-9 -52 -43 -65 -20 -8 -41 -8 -73 0 -39 10 -45 15 -40 33 3 12 6 51 6 89 0 37
3 67 7 67 3 0 37 -21 75 -47z"/>
<path d="M7569 10800 c-77 -21 -126 -42 -157 -67 -12 -10 -45 -36 -72 -58 -27
-22 -50 -46 -50 -52 0 -7 -4 -13 -9 -13 -5 0 -14 -13 -21 -30 -7 -16 -16 -30
-20 -30 -4 0 -11 -17 -15 -37 -4 -21 -10 -42 -15 -48 -17 -23 -20 -160 -5
-220 9 -33 19 -62 24 -65 4 -3 18 -26 30 -52 13 -27 28 -48 34 -48 5 0 8 -3 4
-6 -3 -4 8 -18 25 -33 17 -14 42 -36 55 -48 14 -12 34 -25 44 -28 11 -4 19
-10 19 -14 0 -4 19 -14 43 -21 23 -7 44 -16 47 -21 3 -5 53 -15 110 -23 58 -8
101 -14 97 -15 -5 -1 -2 -7 5 -14 7 -8 29 -35 48 -61 19 -27 45 -58 58 -71 12
-12 22 -27 22 -33 0 -6 11 -19 25 -30 13 -11 22 -22 19 -25 -3 -3 5 -16 18
-30 13 -13 31 -35 41 -48 9 -13 33 -44 53 -68 19 -24 40 -53 45 -63 6 -11 18
-28 27 -37 9 -10 33 -39 52 -65 19 -26 43 -56 53 -67 9 -10 14 -19 10 -19 -5
0 -3 -4 2 -8 19 -14 95 -111 95 -121 0 -6 9 -15 20 -21 11 -6 20 -17 20 -25 0
-7 11 -22 25 -33 13 -11 22 -22 18 -26 -3 -3 6 -15 20 -27 15 -11 27 -27 27
-35 0 -8 5 -14 10 -14 6 0 19 -15 30 -32 l20 -33 -38 -36 c-21 -19 -59 -50
-84 -67 -26 -18 -48 -35 -50 -40 -1 -4 -32 -30 -68 -57 -36 -27 -67 -53 -68
-57 -2 -5 -32 -29 -67 -53 -35 -25 -65 -49 -67 -54 -2 -4 -30 -28 -63 -52 -33
-25 -73 -57 -90 -71 -16 -14 -55 -46 -85 -70 -30 -24 -55 -50 -55 -56 0 -7 74
-89 164 -182 l164 -169 31 16 c17 9 34 21 38 27 4 6 8 8 8 4 0 -4 8 -1 19 8
10 9 70 43 132 76 63 33 116 63 119 67 6 8 97 59 208 116 39 20 72 41 72 46 0
5 3 9 8 9 10 0 243 126 260 140 6 6 12 8 12 5 0 -3 10 3 22 15 12 11 25 20 28
20 10 0 214 111 220 120 3 3 28 19 56 34 46 25 83 55 109 88 6 7 45 54 89 103
43 50 94 110 115 133 20 24 53 61 74 82 20 21 37 41 37 45 0 7 35 46 123 138
26 28 47 54 47 58 0 4 8 13 18 18 9 6 14 11 10 11 -3 0 6 13 20 28 15 16 46
51 70 78 24 27 59 66 77 86 19 20 35 39 35 42 0 5 68 81 133 148 20 22 37 43
37 47 0 5 -39 49 -87 98 -49 50 -114 118 -146 151 -70 74 -109 105 -116 94 -3
-4 -33 -29 -66 -54 -33 -25 -73 -57 -90 -71 -52 -44 -128 -105 -189 -153 -33
-25 -64 -51 -70 -58 -6 -7 -38 -33 -71 -57 -33 -24 -63 -48 -67 -54 -3 -6 -34
-30 -67 -54 -34 -25 -61 -47 -61 -51 0 -3 -14 -16 -31 -29 -28 -21 -32 -22
-47 -7 -9 9 -35 30 -57 47 -60 45 -93 71 -125 99 -16 14 -41 34 -56 45 -15 11
-38 30 -51 43 -13 12 -27 22 -32 22 -4 0 -17 10 -29 23 -12 12 -34 32 -49 44
-55 44 -121 98 -168 137 -16 14 -61 50 -100 81 -38 31 -82 66 -97 78 -15 12
-40 31 -54 42 -15 11 -40 31 -55 45 -16 14 -41 34 -56 45 -73 56 -76 61 -69
131 7 65 -7 141 -29 156 -5 4 -7 8 -3 8 4 0 -6 23 -23 52 -46 78 -101 128
-219 200 -14 8 -41 19 -60 23 -19 4 -39 11 -45 15 -5 4 -53 10 -106 12 -72 4
-112 1 -160 -12z"/>
</g>
</svg>
